<svg height="512pt" viewBox="0 0 512 512" width="512pt" xmlns="http://www.w3.org/2000/svg"><path d="m512 256c0 28.828125-4.765625 56.539062-13.550781 82.390625-7.660157 22.558594-18.382813 43.695313-31.660157 62.933594-8.746093 12.644531-18.589843 24.472656-29.40625 35.328125-5.203124 5.222656-10.636718 10.230468-16.269531 14.984375-3.164062 2.675781-6.394531 5.277343-9.695312 7.804687-39.851563 30.492188-88.929688 49.539063-142.324219 52.222656-4.335938.222657-8.707031.335938-13.09375.335938-1.066406 0-2.121094-.011719-3.175781-.019531-3.25-.042969-6.480469-.136719-9.699219-.304688-53.382812-2.632812-102.449219-21.628906-142.3125-52.066406-5.613281-4.285156-11.046875-8.789063-16.269531-13.511719-3.3125-2.988281-6.550781-6.058594-9.695313-9.214844-46.25-46.308593-74.847656-110.269531-74.847656-180.882812s28.597656-134.574219 74.847656-180.882812c3.144532-3.15625 6.382813-6.226563 9.695313-9.214844 5.222656-4.722656 10.65625-9.226563 16.269531-13.511719 43.050781-32.871094 96.828125-52.390625 155.1875-52.390625 141.386719 0 256 114.613281 256 256zm0 0" fill="#ff613b"/><path d="m100.8125 12.976562v446.632813c-5.613281-4.285156-11.046875-8.789063-16.269531-13.511719-3.3125-2.988281-6.550781-6.058594-9.695313-9.214844v-423.90625c0-3.582031 1.449219-6.820312 3.800782-9.171874 2.351562-2.351563 5.589843-3.804688 9.175781-3.804688.429687 0 .855469.0195312 1.273437.0625.210938.0195312.410156.050781.617188.074219.03125.007812.0625.007812.082031.007812.585937.097657 1.160156.222657 1.726563.398438.199218.0625.386718.125.585937.1875l.5625.21875v.003906c4.769531 1.917969 8.140625 6.574219 8.140625 12.023437zm0 0" fill="#ffc331"/><path d="m92.671875.949219c-4.765625 1.914062-8.128906 6.574219-8.128906 12.027343v433.121094c-3.3125-2.988281-6.550781-6.058594-9.695313-9.214844v-423.90625c0-3.582031 1.449219-6.820312 3.800782-9.171874 2.351562-2.351563 5.589843-3.804688 9.175781-3.804688.429687 0 .855469.0195312 1.273437.0625.210938.0195312.410156.050781.617188.074219.03125.007812.0625.007812.082031.007812.597656.105469 1.171875.230469 1.726563.398438.199218.0625.386718.125.585937.1875zm0 0" fill="#ef9b1a"/><path d="m74.84375 126.765625h25.964844v199.753906h-25.964844zm0 0" fill="#ef9b1a"/><path d="m13.777344 72.179688v-59.195313c0-7.171875 5.808594-12.98046875 12.984375-12.98046875 7.167969 0 12.976562 5.80859375 12.976562 12.98046875v62.199219" fill="#ffc331"/><path d="m135.914062 75.1875v-62.203125c0-7.171875 5.808594-12.98046875 12.972657-12.98046875 7.175781 0 12.984375 5.80859375 12.984375 12.98046875v59.195313" fill="#ffc331"/><path d="m31.609375.945312c-1.5-.605468-3.132813-.945312-4.847656-.945312-7.171875 0-12.984375 5.8125-12.984375 12.980469v49.714843h9.699218v-49.710937c0-5.457031 3.367188-10.117187 8.132813-12.039063zm0 0" fill="#ef9b1a"/><path d="m153.742188.945312c-1.5-.605468-3.132813-.945312-4.847657-.945312-7.167969 0-12.980469 5.8125-12.980469 12.980469v49.714843h9.695313v-49.710937c0-5.457031 3.367187-10.117187 8.132813-12.039063zm0 0" fill="#ef9b1a"/><path d="m93.71875 140.332031h-5.890625v-37.625c0-37.640625 30.515625-68.152343 68.152344-68.152343h5.894531v37.625c-.003906 37.640624-30.515625 68.152343-68.15625 68.152343zm0 0" fill="#f9c94c"/><path d="m161.871094 34.550781v.679688c-33.082032 4.671875-58.535156 33.113281-58.535156 67.480469v36.945312c-3.136719.449219-6.355469.679688-9.613282.679688h-5.894531v-37.625c0-37.640626 30.511719-68.160157 68.160156-68.160157zm0 0" fill="#ef9b1a"/><path d="m87.820312 102.703125v37.628906h-5.890624c-13.027344 0-25.191407-3.65625-35.539063-9.992187-19.5625-11.980469-32.613281-33.550782-32.613281-58.160156v-37.625h5.894531c9.484375 0 18.511719 1.941406 26.71875 5.429687 24.355469 10.394531 41.429687 34.566406 41.429687 62.71875zm0 0" fill="#ffc331"/><path d="m85.589844 140.332031h-3.660156c-13.027344 0-25.191407-3.644531-35.546876-9.976562-14.773437-9.070313-25.839843-23.605469-30.363281-40.78125h3.648438c31.636719 0 58.230469 21.542969 65.921875 50.757812zm0 0" fill="#ef9b1a"/><path d="m34.675781 72.179688v-35.945313c-4.832031-1.085937-9.847656-1.679687-15.007812-1.679687h-5.890625v37.625c0 37.640624 30.515625 68.152343 68.152344 68.152343h5.890624v-1.675781c-30.414062-6.839844-53.144531-33.992188-53.144531-66.476562zm0 0" fill="#ef9b1a"/><path d="m87.820312 166.777344v37.621094h-5.890624c-13.027344 0-25.191407-3.648438-35.539063-9.984376-19.5625-11.980468-32.613281-33.550781-32.613281-58.160156v-37.632812h5.894531c9.484375 0 18.511719 1.941406 26.71875 5.441406 24.355469 10.382812 41.429687 34.5625 41.429687 62.714844zm0 0" fill="#ffc331"/><path d="m85.589844 204.398438h-3.660156c-13.027344 0-25.191407-3.644532-35.546876-9.976563-14.773437-9.070313-25.839843-23.605469-30.363281-40.785156h3.648438c31.636719 0 58.230469 21.546875 65.921875 50.761719zm0 0" fill="#ef9b1a"/><path d="m93.71875 204.402344h-5.890625v-37.625c0-37.640625 30.515625-68.152344 68.152344-68.152344h5.894531v37.625c-.003906 37.640625-30.515625 68.152344-68.15625 68.152344zm0 0" fill="#ffc331"/><path d="m161.863281 98.625v.679688c-33.082031 4.667968-58.535156 33.109374-58.535156 67.476562v36.949219c-3.132813.449219-6.351563.679687-9.613281.679687h-5.890625v-37.628906c0-37.636719 30.507812-68.15625 68.15625-68.15625zm0 0" fill="#ef9b1a"/><path d="m34.675781 136.246094v-35.945313c-4.832031-1.085937-9.847656-1.679687-15.007812-1.679687h-5.890625v37.625c0 37.640625 30.515625 68.15625 68.152344 68.15625h5.890624v-1.679688c-30.414062-6.839844-53.144531-33.996094-53.144531-66.476562zm0 0" fill="#ef9b1a"/><path d="m87.816406 230.84375v37.628906h-5.882812c-13.03125 0-25.195313-3.648437-35.546875-9.980468-14.777344-9.070313-25.84375-23.601563-30.367188-40.78125-1.460937-5.546876-2.246093-11.378907-2.246093-17.386719v-37.628907h5.902343c9.480469 0 18.507813 1.945313 26.710938 5.433594 24.355469 10.386719 41.429687 34.566406 41.429687 62.714844zm0 0" fill="#ffc331"/><path d="m93.71875 268.472656h-5.890625v-37.625c0-37.640625 30.515625-68.15625 68.152344-68.15625h5.894531v37.625c-.003906 37.640625-30.515625 68.15625-68.15625 68.15625zm0 0" fill="#f9c94c"/><path d="m161.863281 162.691406v.679688c-33.082031 4.671875-58.535156 33.113281-58.535156 67.480468v36.949219c-3.132813.449219-6.351563.675781-9.613281.675781h-5.890625v-37.625c0-37.636718 30.507812-68.160156 68.15625-68.160156zm0 0" fill="#ef9b1a"/><path d="m34.675781 200.324219v-35.949219c-4.832031-1.085938-9.847656-1.675781-15.007812-1.675781h-5.890625v37.625c0 37.636719 30.515625 68.152343 68.152344 68.152343h5.890624v-1.679687c-30.414062-6.835937-53.144531-33.992187-53.144531-66.472656zm0 0" fill="#ef9b1a"/><path d="m93.71875 332.539062h-5.890625v-37.625c0-37.640624 30.515625-68.152343 68.152344-68.152343h5.894531v37.625c-.003906 37.640625-30.515625 68.152343-68.15625 68.152343zm0 0" fill="#ffc331"/><path d="m85.589844 268.472656h-3.660156c-13.027344 0-25.191407-3.648437-35.546876-9.980468-14.773437-9.070313-25.839843-23.601563-30.363281-40.78125h3.648438c31.636719 0 58.230469 21.546874 65.921875 50.761718zm0 0" fill="#ef9b1a"/><path d="m81.929688 332.539062h5.894531v-37.625c0-37.640624-30.515625-68.152343-68.15625-68.152343h-5.890625v37.625c0 37.640625 30.515625 68.152343 68.152344 68.152343zm0 0" fill="#ffc331"/><path d="m34.675781 264.386719v-35.945313c-4.832031-1.085937-9.847656-1.679687-15.007812-1.679687h-5.890625v37.625c0 37.640625 30.515625 68.152343 68.152344 68.152343h5.890624v-1.675781c-30.414062-6.839843-53.144531-33.996093-53.144531-66.476562zm0 0" fill="#ef9b1a"/><path d="m161.863281 226.761719v.679687c-33.082031 4.671875-58.535156 33.113282-58.535156 67.480469v36.945313c-3.132813.449218-6.351563.679687-9.613281.679687h-5.890625v-37.625c0-37.636719 30.507812-68.160156 68.15625-68.160156zm0 0" fill="#ef9b1a"/><path d="m269.09375 52.664062v459c-4.335938.222657-8.707031.335938-13.09375.335938-1.066406 0-2.121094-.011719-3.175781-.019531-3.25-.042969-6.480469-.136719-9.699219-.304688v-459.011719c0-3.585937 1.453125-6.824218 3.804688-9.175781 2.351562-2.351562 5.601562-3.804687 9.183593-3.804687.355469 0 .710938.011718 1.066407.042968.074218.011719.136718.011719.199218.019532.210938.023437.417969.042968.628906.074218.519532.074219 1.023438.1875 1.523438.324219.148438.03125.292969.085938.4375.125.148438.054688.292969.09375.441406.148438.167969.0625.324219.113281.480469.175781.019531.011719.050781.019531.074219.03125 4.761718 1.921875 8.128906 6.582031 8.128906 12.039062zm0 0" fill="#ffc331"/><path d="m260.964844 40.625c-4.765625 1.921875-8.140625 6.582031-8.140625 12.039062v459.316407c-3.25-.042969-6.480469-.136719-9.699219-.304688v-459.011719c0-3.585937 1.453125-6.824218 3.804688-9.175781 2.351562-2.351562 5.601562-3.804687 9.183593-3.804687.355469 0 .710938.011718 1.066407.042968.074218.011719.136718.011719.199218.019532.210938.023437.417969.042968.628906.074218.519532.074219 1.023438.1875 1.523438.324219.148438.03125.292969.085938.4375.125.148438.054688.292969.09375.441406.148438.167969.0625.324219.113281.480469.175781.019531.011719.050781.019531.074219.03125zm0 0" fill="#ef9b1a"/><path d="m243.128906 166.445312h25.964844v199.753907h-25.964844zm0 0" fill="#ef9b1a"/><path d="m182.066406 111.859375v-59.191406c0-7.175781 5.808594-12.984375 12.984375-12.984375 7.164063 0 12.972657 5.808594 12.972657 12.984375v62.199219" fill="#ffc331"/><path d="m304.199219 114.867188v-62.199219c0-7.175781 5.808593-12.984375 12.976562-12.984375 7.175781 0 12.984375 5.808594 12.984375 12.984375v59.191406" fill="#ffc331"/><path d="m199.894531 40.625c-1.5-.601562-3.132812-.945312-4.847656-.945312-7.171875 0-12.980469 5.8125-12.980469 12.984374v49.714844h9.695313v-49.714844c0-5.453124 3.367187-10.117187 8.132812-12.039062zm0 0" fill="#ef9b1a"/><path d="m322.03125 40.625c-1.5-.601562-3.132812-.945312-4.847656-.945312-7.171875 0-12.984375 5.8125-12.984375 12.984374v49.714844h9.699219v-49.714844c-.003907-5.453124 3.363281-10.117187 8.132812-12.039062zm0 0" fill="#ef9b1a"/><path d="m262.007812 180.011719h-5.894531v-37.625c0-37.640625 30.515625-68.152344 68.15625-68.152344h5.890625v37.625c0 37.640625-30.515625 68.152344-68.152344 68.152344zm0 0" fill="#f9c94c"/><path d="m330.15625 74.230469v.679687c-33.082031 4.671875-58.535156 33.113282-58.535156 67.480469v36.945313c-3.132813.449218-6.351563.679687-9.613282.679687h-5.894531v-37.625c0-37.636719 30.511719-68.160156 68.160157-68.160156zm0 0" fill="#ef9b1a"/><path d="m256.105469 142.382812v37.632813h-5.886719c-13.027344 0-25.191406-3.660156-35.542969-9.996094-19.558593-11.980469-32.613281-33.550781-32.613281-58.160156v-37.621094h5.898438c9.484374 0 18.511718 1.9375 26.71875 5.429688 24.351562 10.390625 41.425781 34.5625 41.425781 62.714843zm0 0" fill="#ffc331"/><path d="m253.875 180.015625h-3.65625c-13.03125 0-25.191406-3.648437-35.546875-9.980469-14.777344-9.070312-25.839844-23.601562-30.367187-40.78125h3.648437c31.640625 0 58.230469 21.546875 65.921875 50.761719zm0 0" fill="#ef9b1a"/><path d="m202.964844 111.863281v-35.949219c-4.832032-1.085937-9.851563-1.675781-15.007813-1.675781h-5.890625v37.625c0 37.636719 30.511719 68.152344 68.152344 68.152344h5.890625v-1.679687c-30.417969-6.835938-53.144531-33.992188-53.144531-66.472657zm0 0" fill="#ef9b1a"/><path d="m256.105469 206.460938v37.621093h-5.886719c-13.027344 0-25.191406-3.652343-35.542969-9.988281-19.558593-11.980469-32.613281-33.550781-32.613281-58.160156v-37.632813h5.898438c9.484374 0 18.511718 1.941407 26.71875 5.441407 24.351562 10.382812 41.425781 34.5625 41.425781 62.71875zm0 0" fill="#ffc331"/><path d="m253.875 244.082031h-3.65625c-13.03125 0-25.191406-3.648437-35.546875-9.980469-14.777344-9.070312-25.839844-23.605468-30.367187-40.78125h3.648437c31.640625 0 58.230469 21.546876 65.921875 50.761719zm0 0" fill="#ef9b1a"/><path d="m262.007812 244.082031h-5.894531v-37.625c0-37.640625 30.515625-68.152343 68.15625-68.152343h5.890625v37.625c0 37.640624-30.515625 68.152343-68.152344 68.152343zm0 0" fill="#ffc331"/><path d="m330.152344 138.304688v.679687c-33.082032 4.671875-58.535156 33.113281-58.535156 67.480469v36.945312c-3.136719.449219-6.355469.679688-9.613282.679688h-5.894531v-37.625c0-37.636719 30.511719-68.160156 68.160156-68.160156zm0 0" fill="#ef9b1a"/><path d="m202.964844 175.925781v-35.945312c-4.832032-1.085938-9.851563-1.679688-15.007813-1.679688h-5.890625v37.625c0 37.640625 30.511719 68.15625 68.152344 68.15625h5.890625v-1.679687c-30.417969-6.835938-53.144531-33.992188-53.144531-66.476563zm0 0" fill="#ef9b1a"/><path d="m256.101562 270.523438v37.628906h-5.882812c-13.03125 0-25.191406-3.648438-35.546875-9.980469-14.777344-9.070313-25.839844-23.601563-30.367187-40.78125-1.460938-5.546875-2.246094-11.378906-2.246094-17.386719v-37.628906h5.90625c9.476562 0 18.503906 1.945312 26.707031 5.433594 24.355469 10.386718 41.429687 34.566406 41.429687 62.714844zm0 0" fill="#ffc331"/><path d="m262.007812 308.152344h-5.894531v-37.625c0-37.640625 30.515625-68.152344 68.15625-68.152344h5.890625v37.625c0 37.640625-30.515625 68.152344-68.152344 68.152344zm0 0" fill="#f9c94c"/><path d="m330.152344 202.375v.679688c-33.082032 4.667968-58.535156 33.109374-58.535156 67.476562v36.949219c-3.136719.449219-6.355469.679687-9.613282.679687h-5.894531v-37.628906c0-37.636719 30.511719-68.15625 68.160156-68.15625zm0 0" fill="#ef9b1a"/><path d="m202.964844 240.003906v-35.949218c-4.832032-1.085938-9.851563-1.675782-15.007813-1.675782h-5.890625v37.625c0 37.636719 30.511719 68.152344 68.152344 68.152344h5.890625v-1.679688c-30.417969-6.835937-53.144531-33.992187-53.144531-66.472656zm0 0" fill="#ef9b1a"/><path d="m262.007812 372.222656h-5.894531v-37.625c0-37.640625 30.515625-68.15625 68.15625-68.15625h5.890625v37.625c0 37.640625-30.515625 68.15625-68.152344 68.15625zm0 0" fill="#ffc331"/><path d="m253.875 308.152344h-3.65625c-13.03125 0-25.191406-3.648438-35.546875-9.980469-14.777344-9.070313-25.839844-23.601563-30.367187-40.78125h3.648437c31.640625 0 58.230469 21.546875 65.921875 50.761719zm0 0" fill="#ef9b1a"/><path d="m250.21875 372.222656h5.890625v-37.625c0-37.640625-30.515625-68.15625-68.152344-68.15625h-5.894531v37.625c.003906 37.640625 30.515625 68.15625 68.15625 68.15625zm0 0" fill="#ffc331"/><path d="m202.964844 304.066406v-35.945312c-4.832032-1.085938-9.851563-1.679688-15.007813-1.679688h-5.890625v37.625c0 37.640625 30.511719 68.15625 68.152344 68.15625h5.890625v-1.679687c-30.417969-6.839844-53.144531-33.992188-53.144531-66.476563zm0 0" fill="#ef9b1a"/><path d="m330.152344 266.441406v.679688c-33.082032 4.671875-58.535156 33.113281-58.535156 67.480468v36.949219c-3.136719.449219-6.355469.675781-9.613282.675781h-5.894531v-37.625c0-37.636718 30.511719-68.160156 68.160156-68.160156zm0 0" fill="#ef9b1a"/><path d="m437.382812 92.347656v344.304688c-5.203124 5.222656-10.636718 10.230468-16.269531 14.984375-3.164062 2.675781-6.394531 5.277343-9.695312 7.804687v-367.09375c0-3.582031 1.453125-6.832031 3.804687-9.183594 2.339844-2.351562 5.589844-3.804687 9.171875-3.804687.429688 0 .859375.023437 1.277344.0625.835937.085937 1.640625.242187 2.421875.480469.199219.0625.386719.125.585938.1875.1875.074218.375.148437.5625.222656 4.769531 1.917969 8.140624 6.574219 8.140624 12.035156zm0 0" fill="#ffc331"/><path d="m429.242188 80.3125c-4.761719 1.921875-8.128907 6.582031-8.128907 12.035156v359.289063c-3.164062 2.675781-6.394531 5.277343-9.695312 7.804687v-367.09375c0-3.582031 1.453125-6.832031 3.804687-9.183594 2.339844-2.351562 5.589844-3.804687 9.171875-3.804687.429688 0 .859375.023437 1.277344.0625.835937.085937 1.640625.25 2.421875.480469.199219.0625.386719.125.585938.1875.1875.074218.375.148437.5625.222656zm0 0" fill="#ef9b1a"/><path d="m411.417969 206.125h25.960937v199.757812h-25.960937zm0 0" fill="#ef9b1a"/><path d="m350.351562 151.539062v-59.191406c0-7.175781 5.808594-12.984375 12.984376-12.984375 7.167968 0 12.976562 5.808594 12.976562 12.984375v62.199219" fill="#ffc331"/><path d="m472.484375 154.546875v-62.199219c0-7.175781 5.808594-12.984375 12.976563-12.984375 7.175781 0 12.984374 5.808594 12.984374 12.984375v59.191406" fill="#ffc331"/><path d="m368.183594 80.308594c-1.5-.605469-3.132813-.945313-4.847656-.945313-7.171876 0-12.984376 5.808594-12.984376 12.980469v49.714844h9.699219v-49.714844c-.003906-5.453125 3.363281-10.113281 8.132813-12.035156zm0 0" fill="#ef9b1a"/><path d="m490.316406 80.308594c-1.5-.605469-3.132812-.945313-4.847656-.945313-7.171875 0-12.984375 5.808594-12.984375 12.980469v49.714844h9.699219v-49.714844c0-5.453125 3.367187-10.113281 8.132812-12.035156zm0 0" fill="#ef9b1a"/><path d="m430.292969 219.695312h-5.890625v-37.625c0-37.640624 30.511718-68.15625 68.152344-68.15625h5.890624v37.625c0 37.640626-30.511718 68.15625-68.152343 68.15625zm0 0" fill="#f9c94c"/><path d="m498.445312 113.910156v.679688c-33.082031 4.671875-58.535156 33.113281-58.535156 67.480468v36.949219c-3.136718.449219-6.355468.675781-9.613281.675781h-5.894531v-37.625c0-37.636718 30.511718-68.160156 68.160156-68.160156zm0 0" fill="#ef9b1a"/><path d="m424.394531 182.066406v37.628906h-5.890625c-13.027344 0-25.191406-3.660156-35.539062-9.996093-19.5625-11.980469-32.617188-33.550781-32.617188-58.160157v-37.621093h5.898438c9.484375 0 18.511718 1.9375 26.71875 5.429687 24.355468 10.390625 41.429687 34.5625 41.429687 62.71875zm0 0" fill="#ffc331"/><path d="m422.164062 219.695312h-3.660156c-13.027344 0-25.191406-3.648437-35.546875-9.980468-14.773437-9.066406-25.839843-23.601563-30.363281-40.78125h3.644531c31.640625 0 58.234375 21.546875 65.925781 50.761718zm0 0" fill="#ef9b1a"/><path d="m371.25 151.542969v-35.945313c-4.832031-1.085937-9.847656-1.679687-15.007812-1.679687h-5.890626v37.625c0 37.640625 30.511719 68.152343 68.152344 68.152343h5.890625v-1.675781c-30.414062-6.839843-53.144531-33.996093-53.144531-66.476562zm0 0" fill="#ef9b1a"/><path d="m424.394531 246.140625v37.621094h-5.890625c-13.027344 0-25.191406-3.648438-35.539062-9.988281-19.5625-11.976563-32.617188-33.546876-32.617188-58.160157v-37.628906h5.898438c9.484375 0 18.511718 1.9375 26.71875 5.4375 24.355468 10.382813 41.429687 34.5625 41.429687 62.71875zm0 0" fill="#ffc331"/><path d="m422.164062 283.761719h-3.660156c-13.027344 0-25.191406-3.648438-35.546875-9.980469-14.773437-9.066406-25.839843-23.601562-30.363281-40.78125h3.644531c31.640625 0 58.234375 21.546875 65.925781 50.761719zm0 0" fill="#ef9b1a"/><path d="m430.292969 283.761719h-5.890625v-37.625c0-37.640625 30.511718-68.152344 68.152344-68.152344h5.890624v37.625c0 37.640625-30.511718 68.152344-68.152343 68.152344zm0 0" fill="#ffc331"/><path d="m498.4375 177.984375v.679687c-33.082031 4.671876-58.535156 33.113282-58.535156 67.480469v36.945313c-3.136719.449218-6.351563.679687-9.613282.679687h-5.894531v-37.625c0-37.636719 30.511719-68.160156 68.160157-68.160156zm0 0" fill="#ef9b1a"/><path d="m371.25 215.609375v-35.949219c-4.832031-1.082031-9.847656-1.675781-15.007812-1.675781h-5.890626v37.625c0 37.636719 30.511719 68.152344 68.152344 68.152344h5.890625v-1.679688c-30.414062-6.835937-53.144531-33.992187-53.144531-66.472656zm0 0" fill="#ef9b1a"/><path d="m424.386719 310.207031v37.625h-5.882813c-13.027344 0-25.191406-3.644531-35.546875-9.976562-14.773437-9.070313-25.839843-23.605469-30.363281-40.785157-1.464844-5.546874-2.246094-11.378906-2.246094-17.386718v-37.625h5.902344c9.476562 0 18.503906 1.941406 26.707031 5.433594 24.359375 10.386718 41.429688 34.5625 41.429688 62.714843zm0 0" fill="#ffc331"/><path d="m430.292969 347.832031h-5.890625v-37.625c0-37.640625 30.511718-68.152343 68.152344-68.152343h5.890624v37.625c0 37.640624-30.511718 68.152343-68.152343 68.152343zm0 0" fill="#f9c94c"/><path d="m498.4375 242.054688v.679687c-33.082031 4.671875-58.535156 33.113281-58.535156 67.480469v36.945312c-3.136719.449219-6.351563.679688-9.613282.679688h-5.894531v-37.625c0-37.636719 30.511719-68.160156 68.160157-68.160156zm0 0" fill="#ef9b1a"/><path d="m371.25 279.683594v-35.945313c-4.832031-1.085937-9.847656-1.679687-15.007812-1.679687h-5.890626v37.625c0 37.640625 30.511719 68.152344 68.152344 68.152344h5.890625v-1.675782c-30.414062-6.839844-53.144531-33.996094-53.144531-66.476562zm0 0" fill="#ef9b1a"/><path d="m498.449219 306.125v32.265625c-7.660157 22.558594-18.382813 43.695313-31.660157 62.933594-10.554687 6.699219-23.074218 10.574219-36.5 10.574219h-5.882812v-37.625c0-37.636719 30.511719-68.148438 68.148438-68.148438zm0 0" fill="#ffc331"/><path d="m422.164062 347.832031h-3.660156c-13.027344 0-25.191406-3.644531-35.546875-9.976562-14.773437-9.070313-25.839843-23.605469-30.363281-40.785157h3.644531c31.640625 0 58.234375 21.546876 65.925781 50.761719zm0 0" fill="#ef9b1a"/><path d="m418.503906 411.902344h5.890625v-37.625c0-37.640625-30.511719-68.152344-68.152343-68.152344h-5.890626v37.625c0 37.640625 30.511719 68.152344 68.152344 68.152344zm0 0" fill="#ffc331"/><g fill="#ef9b1a"><path d="m371.25 343.75v-35.949219c-4.832031-1.085937-9.847656-1.675781-15.007812-1.675781h-5.890626v37.625c0 37.636719 30.511719 68.152344 68.152344 68.152344h5.890625v-1.679688c-30.414062-6.835937-53.144531-33.992187-53.144531-66.472656zm0 0"/><path d="m498.4375 306.125v.679688c-33.082031 4.667968-58.535156 33.109374-58.535156 67.476562v36.949219c-3.136719.449219-6.351563.679687-9.613282.679687h-5.894531v-37.628906c0-37.636719 30.511719-68.15625 68.160157-68.15625zm0 0"/></g></svg>